# This file uses centimeters as units for non-parametric coordinates.

mtllib lights.mtl
g default
v 0.875755 0.808191 2.518903
v 1.433093 0.808191 2.518903
v 0.875755 0.535445 2.518903
v 1.433093 0.535445 2.518903
v 1.015075 0.603625 2.758277
v 0.875755 0.535445 2.698440
v 1.293772 0.603625 2.758277
v 1.433093 0.535445 2.698440
v 1.015075 0.740011 2.758277
v 0.875755 0.808191 2.698440
v 1.293772 0.740011 2.758277
v 1.433093 0.808191 2.698440
v -0.875754 0.808191 2.518903
v -1.433092 0.808191 2.518903
v -0.875754 0.535445 2.518903
v -1.433092 0.535445 2.518903
v -1.015075 0.603625 2.758277
v -0.875754 0.535445 2.698440
v -1.293772 0.603625 2.758277
v -1.433092 0.535445 2.698440
v -1.015075 0.740011 2.758277
v -0.875754 0.808191 2.698440
v -1.293772 0.740011 2.758277
v -1.433092 0.808191 2.698440
v 1.108882 0.551156 -1.993802
v 1.303223 0.551156 -1.993802
v 1.108882 0.745497 -1.993802
v 1.303223 0.745497 -1.993802
v 1.108882 0.745497 -2.139563
v 1.157462 0.696916 -2.188143
v 1.254642 0.696916 -2.188143
v 1.303223 0.745497 -2.139563
v 1.157462 0.599737 -2.188143
v 1.108882 0.551156 -2.139563
v 1.254642 0.599737 -2.188143
v 1.303223 0.551156 -2.139563
v -1.108882 0.551156 -1.993802
v -1.303223 0.551156 -1.993802
v -1.108882 0.745497 -1.993802
v -1.303223 0.745497 -1.993802
v -1.108882 0.745497 -2.139563
v -1.157462 0.696916 -2.188143
v -1.254642 0.696916 -2.188143
v -1.303223 0.745497 -2.139563
v -1.157462 0.599737 -2.188143
v -1.108882 0.551156 -2.139563
v -1.254642 0.599737 -2.188143
v -1.303223 0.551156 -2.139563
vt 0.437494 0.062494
vt 0.312506 0.000000
vt 0.562506 0.062494
vt 0.687494 0.000000
vt 0.375000 0.312494
vt 0.437494 0.187506
vt 0.562506 0.187506
vt 0.687494 0.250000
vt 0.625000 0.312494
vt 0.375000 0.500000
vt 0.625000 0.500000
vt 0.375000 0.750000
vt 0.625000 0.750000
vt 0.375000 0.937506
vt 0.625000 0.937506
vt 0.875000 0.000000
vt 0.875000 0.250000
vt 0.125000 0.000000
vt 0.125000 0.250000
vt 0.312506 0.250000
vt 0.437494 0.062494
vt 0.562506 0.062494
vt 0.312506 0.000000
vt 0.687494 0.000000
vt 0.375000 0.312494
vt 0.437494 0.187506
vt 0.562506 0.187506
vt 0.687494 0.250000
vt 0.375000 0.500000
vt 0.625000 0.312494
vt 0.625000 0.500000
vt 0.375000 0.750000
vt 0.375000 0.937506
vt 0.625000 0.750000
vt 0.625000 0.937506
vt 0.875000 0.000000
vt 0.875000 0.250000
vt 0.125000 0.000000
vt 0.125000 0.250000
vt 0.312506 0.250000
vt 0.375000 0.437506
vt 0.437494 0.562494
vt 0.375000 0.812494
vt 0.437494 0.687506
vt 0.562506 0.562494
vt 0.625000 0.437506
vt 0.562506 0.687506
vt 0.625000 0.812494
vt 0.375000 0.250000
vt 0.625000 0.250000
vt 0.375000 1.000000
vt 0.625000 1.000000
vt 0.625000 0.000000
vt 0.812506 0.000000
vt 0.812506 0.250000
vt 0.187494 0.000000
vt 0.375000 0.000000
vt 0.187494 0.250000
vt 0.375000 0.437506
vt 0.375000 0.812494
vt 0.437494 0.562494
vt 0.437494 0.687506
vt 0.562506 0.562494
vt 0.625000 0.437506
vt 0.562506 0.687506
vt 0.625000 0.812494
vt 0.375000 0.250000
vt 0.625000 0.250000
vt 0.375000 1.000000
vt 0.625000 1.000000
vt 0.625000 0.000000
vt 0.812506 0.000000
vt 0.812506 0.250000
vt 0.187494 0.000000
vt 0.187494 0.250000
vt 0.375000 0.000000
vn 0.000000 -0.659631 0.751590
vn 0.000000 -0.659631 0.751590
vn 0.000000 -0.659631 0.751590
vn 0.000000 -0.659631 0.751590
vn 0.000000 -0.659631 0.751590
vn 0.000000 -0.659631 0.751589
vn -0.394637 0.000000 0.918837
vn -0.394637 0.000000 0.918837
vn -0.394637 0.000000 0.918837
vn -0.394637 0.000000 0.918837
vn -0.394637 0.000000 0.918837
vn -0.394638 0.000000 0.918837
vn 0.394638 0.000000 0.918837
vn 0.394638 0.000000 0.918837
vn 0.394638 0.000000 0.918837
vn 0.394638 0.000000 0.918837
vn 0.394638 0.000000 0.918837
vn 0.394637 0.000000 0.918837
vn 0.000000 0.659630 0.751591
vn 0.000000 0.659630 0.751591
vn 0.000000 0.659630 0.751590
vn 0.000000 0.659630 0.751590
vn 0.000000 0.659630 0.751591
vn 0.000000 0.659631 0.751590
vn 0.000000 0.000000 1.000000
vn 0.000000 0.000000 1.000000
vn 0.000000 0.000000 1.000000
vn 0.000000 0.000000 1.000000
vn 0.000000 0.000000 1.000000
vn 0.000000 0.000000 1.000000
vn 0.000000 1.000000 0.000000
vn 0.000000 1.000000 0.000000
vn 0.000000 1.000000 0.000000
vn 0.000000 1.000000 0.000000
vn 0.000000 1.000000 0.000000
vn 0.000000 1.000000 0.000000
vn 0.000000 -1.000000 0.000000
vn 0.000000 -1.000000 0.000000
vn 0.000000 -1.000000 0.000000
vn 0.000000 -1.000000 0.000000
vn 0.000000 -1.000000 0.000000
vn 0.000000 -1.000000 0.000000
vn 1.000000 0.000000 0.000000
vn 1.000000 0.000000 0.000000
vn 1.000000 0.000000 0.000000
vn 1.000000 0.000000 0.000000
vn 1.000000 0.000000 0.000000
vn 1.000000 0.000000 0.000000
vn -1.000000 0.000000 0.000000
vn -1.000000 0.000000 0.000000
vn -1.000000 0.000000 0.000000
vn -1.000000 0.000000 0.000000
vn -1.000000 0.000000 0.000000
vn -1.000000 0.000000 0.000000
vn 0.000000 -0.659631 0.751590
vn 0.000000 -0.659631 0.751590
vn 0.000000 -0.659631 0.751590
vn 0.000000 -0.659631 0.751590
vn 0.000000 -0.659631 0.751590
vn 0.000000 -0.659631 0.751590
vn 0.394636 0.000000 0.918838
vn 0.394637 0.000000 0.918837
vn 0.394637 0.000000 0.918837
vn 0.394637 0.000000 0.918837
vn 0.394637 0.000000 0.918837
vn 0.394637 0.000000 0.918837
vn -0.394638 0.000000 0.918837
vn -0.394638 0.000000 0.918837
vn -0.394638 0.000000 0.918837
vn -0.394638 0.000000 0.918837
vn -0.394638 0.000000 0.918837
vn -0.394638 0.000000 0.918837
vn 0.000000 0.659630 0.751591
vn 0.000000 0.659630 0.751590
vn 0.000000 0.659630 0.751591
vn 0.000000 0.659630 0.751591
vn 0.000000 0.659630 0.751590
vn 0.000000 0.659631 0.751590
vn 0.000000 0.000000 1.000000
vn 0.000000 0.000000 1.000000
vn 0.000000 0.000000 1.000000
vn 0.000000 0.000000 1.000000
vn 0.000000 0.000000 1.000000
vn 0.000000 0.000000 1.000000
vn 0.000000 1.000000 0.000000
vn 0.000000 1.000000 0.000000
vn 0.000000 1.000000 0.000000
vn 0.000000 1.000000 0.000000
vn 0.000000 1.000000 0.000000
vn 0.000000 1.000000 0.000000
vn 0.000000 -1.000000 0.000000
vn 0.000000 -1.000000 0.000000
vn 0.000000 -1.000000 0.000000
vn 0.000000 -1.000000 0.000000
vn 0.000000 -1.000000 0.000000
vn 0.000000 -1.000000 0.000000
vn -1.000000 0.000000 0.000000
vn -1.000000 0.000000 0.000000
vn -1.000000 0.000000 0.000000
vn -1.000000 0.000000 0.000000
vn -1.000000 0.000000 0.000000
vn -1.000000 0.000000 0.000000
vn 1.000000 0.000000 0.000000
vn 1.000000 0.000000 0.000000
vn 1.000000 0.000000 0.000000
vn 1.000000 0.000000 0.000000
vn 1.000000 0.000000 0.000000
vn 1.000000 0.000000 0.000000
vn -0.707109 0.000000 -0.707105
vn -0.707109 0.000000 -0.707105
vn -0.707109 0.000000 -0.707105
vn -0.707109 0.000000 -0.707105
vn -0.707109 0.000000 -0.707105
vn -0.707109 0.000000 -0.707105
vn 0.000000 0.707107 -0.707107
vn 0.000000 0.707107 -0.707107
vn 0.000000 0.707107 -0.707107
vn 0.000000 0.707107 -0.707107
vn 0.000000 0.707107 -0.707107
vn 0.000000 0.707107 -0.707107
vn 0.707105 0.000000 -0.707108
vn 0.707106 0.000000 -0.707108
vn 0.707106 0.000000 -0.707107
vn 0.707106 0.000000 -0.707107
vn 0.707106 0.000000 -0.707108
vn 0.707106 0.000000 -0.707107
vn 0.000000 -0.707107 -0.707106
vn 0.000000 -0.707107 -0.707107
vn 0.000000 -0.707107 -0.707107
vn 0.000000 -0.707107 -0.707107
vn 0.000000 -0.707107 -0.707107
vn 0.000000 -0.707107 -0.707107
vn 0.000000 1.000000 0.000000
vn 0.000000 1.000000 0.000000
vn 0.000000 1.000000 0.000000
vn 0.000000 1.000000 0.000000
vn 0.000000 1.000000 0.000000
vn 0.000000 1.000000 0.000000
vn 0.000000 0.000000 -1.000000
vn 0.000000 0.000000 -1.000000
vn 0.000000 0.000000 -1.000000
vn 0.000000 0.000000 -1.000000
vn 0.000000 0.000000 -1.000000
vn 0.000000 0.000000 -1.000000
vn 0.000000 -1.000000 0.000000
vn 0.000000 -1.000000 0.000000
vn 0.000000 -1.000000 0.000000
vn 0.000000 -1.000000 0.000000
vn 0.000000 -1.000000 0.000000
vn 0.000000 -1.000000 0.000000
vn 1.000000 0.000000 0.000000
vn 1.000000 0.000000 0.000000
vn 1.000000 0.000000 0.000000
vn 1.000000 0.000000 0.000000
vn 1.000000 0.000000 0.000000
vn 1.000000 0.000000 0.000000
vn -1.000000 0.000000 0.000000
vn -1.000000 0.000000 0.000000
vn -1.000000 0.000000 0.000000
vn -1.000000 0.000000 0.000000
vn -1.000000 0.000000 0.000000
vn -1.000000 0.000000 0.000000
vn 0.707110 0.000000 -0.707104
vn 0.707110 0.000000 -0.707104
vn 0.707110 0.000000 -0.707104
vn 0.707110 0.000000 -0.707104
vn 0.707110 0.000000 -0.707104
vn 0.707109 0.000000 -0.707105
vn 0.000000 0.707107 -0.707106
vn 0.000000 0.707107 -0.707107
vn 0.000000 0.707107 -0.707106
vn 0.000000 0.707107 -0.707106
vn 0.000000 0.707107 -0.707107
vn 0.000000 0.707107 -0.707107
vn -0.707105 0.000000 -0.707108
vn -0.707105 0.000000 -0.707108
vn -0.707105 0.000000 -0.707108
vn -0.707105 0.000000 -0.707108
vn -0.707105 0.000000 -0.707108
vn -0.707105 0.000000 -0.707108
vn 0.000000 -0.707107 -0.707106
vn 0.000000 -0.707107 -0.707107
vn 0.000000 -0.707107 -0.707106
vn 0.000000 -0.707107 -0.707106
vn 0.000000 -0.707107 -0.707107
vn 0.000000 -0.707106 -0.707107
vn 0.000000 1.000000 0.000000
vn 0.000000 1.000000 0.000000
vn 0.000000 1.000000 0.000000
vn 0.000000 1.000000 0.000000
vn 0.000000 1.000000 0.000000
vn 0.000000 1.000000 0.000000
vn 0.000000 0.000000 -1.000000
vn 0.000000 0.000000 -1.000000
vn 0.000000 0.000000 -1.000000
vn 0.000000 0.000000 -1.000000
vn 0.000000 0.000000 -1.000000
vn 0.000000 0.000000 -1.000000
vn 0.000000 -1.000000 0.000000
vn 0.000000 -1.000000 0.000000
vn 0.000000 -1.000000 0.000000
vn 0.000000 -1.000000 0.000000
vn 0.000000 -1.000000 0.000000
vn 0.000000 -1.000000 0.000000
vn -1.000000 0.000000 0.000000
vn -1.000000 0.000000 0.000000
vn -1.000000 0.000000 0.000000
vn -1.000000 0.000000 0.000000
vn -1.000000 0.000000 0.000000
vn -1.000000 0.000000 0.000000
vn 1.000000 0.000000 0.000000
vn 1.000000 0.000000 0.000000
vn 1.000000 0.000000 0.000000
vn 1.000000 0.000000 0.000000
vn 1.000000 0.000000 0.000000
vn 1.000000 0.000000 0.000000
s off
g polySurface12
usemtl initialShadingGroup1
f 5/1/1 6/2/2 7/3/3
f 7/3/4 6/2/5 8/4/6
f 6/2/7 5/1/8 10/5/9
f 10/5/10 5/1/11 9/6/12
f 7/3/13 8/4/14 11/7/15
f 11/7/16 8/4/17 12/8/18
f 10/5/19 9/6/20 12/8/21
f 12/8/22 9/6/23 11/7/24
f 5/1/25 7/3/26 9/6/27
f 9/6/28 7/3/29 11/7/30
f 10/5/31 12/9/32 1/10/33
f 1/10/34 12/9/35 2/11/36
f 3/12/37 4/13/38 6/14/39
f 6/14/40 4/13/41 8/15/42
f 8/4/43 4/16/44 12/8/45
f 12/8/46 4/16/47 2/17/48
f 3/18/49 6/2/50 1/19/51
f 1/19/52 6/2/53 10/20/54
f 17/21/55 19/22/56 18/23/57
f 18/23/58 19/22/59 20/24/60
f 18/23/61 22/25/62 17/21/63
f 17/21/64 22/25/65 21/26/66
f 19/22/67 23/27/68 20/24/69
f 20/24/70 23/27/71 24/28/72
f 22/25/73 24/28/74 21/26/75
f 21/26/76 24/28/77 23/27/78
f 17/21/79 21/26/80 19/22/81
f 19/22/82 21/26/83 23/27/84
f 22/25/85 13/29/86 24/30/87
f 24/30/88 13/29/89 14/31/90
f 15/32/91 18/33/92 16/34/93
f 16/34/94 18/33/95 20/35/96
f 20/24/97 24/28/98 16/36/99
f 16/36/100 24/28/101 14/37/102
f 15/38/103 13/39/104 18/23/105
f 18/23/106 13/39/107 22/40/108
f 29/41/109 30/42/110 34/43/111
f 34/43/112 30/42/113 33/44/114
f 30/42/115 29/41/116 31/45/117
f 31/45/118 29/41/119 32/46/120
f 31/45/121 32/46/122 35/47/123
f 35/47/124 32/46/125 36/48/126
f 34/43/127 33/44/128 36/48/129
f 36/48/130 33/44/131 35/47/132
f 27/49/133 28/50/134 29/41/135
f 29/41/136 28/50/137 32/46/138
f 30/42/139 31/45/140 33/44/141
f 33/44/142 31/45/143 35/47/144
f 34/43/145 36/48/146 25/51/147
f 25/51/148 36/48/149 26/52/150
f 26/53/151 36/54/152 28/50/153
f 28/50/154 36/54/155 32/55/156
f 34/56/157 25/57/158 29/58/159
f 29/58/160 25/57/161 27/49/162
f 41/59/163 46/60/164 42/61/165
f 42/61/166 46/60/167 45/62/168
f 42/61/169 43/63/170 41/59/171
f 41/59/172 43/63/173 44/64/174
f 43/63/175 47/65/176 44/64/177
f 44/64/178 47/65/179 48/66/180
f 46/60/181 48/66/182 45/62/183
f 45/62/184 48/66/185 47/65/186
f 39/67/187 41/59/188 40/68/189
f 40/68/190 41/59/191 44/64/192
f 42/61/193 45/62/194 43/63/195
f 43/63/196 45/62/197 47/65/198
f 46/60/199 37/69/200 48/66/201
f 48/66/202 37/69/203 38/70/204
f 38/71/205 40/68/206 48/72/207
f 48/72/208 40/68/209 44/73/210
f 46/74/211 41/75/212 37/76/213
f 37/76/214 41/75/215 39/67/216
